<svg width="418" height="98" viewBox="0 0 418 98" fill="none" xmlns="http://www.w3.org/2000/svg">
<path d="M3.51954 2.53049C1.2905 2.66364 0.117319 3.99513 0.117319 6.39182C1.50895e-06 8.78851 0 12.3835 0 17.0438C0 19.3073 1.40782 20.9051 3.40222 20.9051H26.3971C26.5144 45.5377 26.749 69.239 27.101 92.0083C27.101 94.405 28.1568 95.7358 30.2686 95.8696C35.0786 96.1359 39.8892 96.1359 44.464 95.8696C46.4584 95.7358 47.6316 94.405 47.7489 92.0083C48.1015 66.5767 48.3361 42.8755 48.3361 20.9051H71.3303C73.5594 20.9051 74.7326 19.5736 74.8493 17.0438C74.8493 12.2504 74.7326 8.65536 74.6152 6.12552C74.6152 3.86198 73.5594 2.66364 71.3303 2.53049C60.1845 2.26349 49.626 2.13105 39.4193 2.13105C28.1568 2.13105 16.1905 2.26349 3.51954 2.53049Z" fill="url(#paint0_linear_109_958)"/>
<path d="M88.0747 3.23167C85.8456 3.36481 84.6724 4.69631 84.6724 7.093C84.5551 9.48969 84.5551 13.0847 84.5551 17.7449C84.5551 20.0085 85.9629 21.607 87.9573 21.607H110.952C111.07 46.2396 111.304 69.9402 111.655 92.7094C111.655 95.1061 112.711 96.4369 114.823 96.5708C119.634 96.8371 124.443 96.8371 129.019 96.5708C131.014 96.4369 132.187 95.1061 132.304 92.7094C132.656 67.2772 132.891 43.5759 132.891 21.607H155.885C158.114 21.607 159.287 20.2755 159.404 17.7449C159.404 12.9516 159.287 9.35654 159.17 6.8267C159.17 4.56316 158.114 3.36481 155.885 3.23167C144.74 2.96467 134.181 2.83153 123.974 2.83153C112.711 2.83153 100.746 2.96467 88.0747 3.23167Z" fill="url(#paint1_linear_109_958)"/>
<path d="M183.571 2.96423C182.28 2.96423 181.225 3.76381 180.521 5.22845C171.135 29.5948 162.102 58.3558 153.303 91.6438C152.716 94.4399 153.889 96.4365 156.353 96.5703C161.046 96.8366 166.325 96.8366 172.191 96.4365C173.716 96.4365 174.772 95.5044 175.359 93.641C177.118 86.7166 178.526 81.125 179.7 76.8642H207.621C209.968 85.7845 211.375 91.3768 211.962 93.641C212.549 95.5044 213.605 96.4365 215.13 96.4365C220.996 96.8366 226.275 96.8366 230.967 96.5703C233.432 96.4365 234.604 94.4399 234.018 91.6438C225.219 58.3558 216.185 29.5948 206.8 5.22845C206.097 3.76381 205.041 2.96423 203.75 2.96423C200.348 2.69862 196.946 2.56548 193.543 2.56548C190.141 2.56548 186.856 2.69862 183.571 2.96423ZM193.661 29.4616C196.711 38.7821 199.761 48.7683 202.811 59.2878H184.51C187.443 48.9022 190.493 38.9152 193.661 29.4616Z" fill="url(#paint2_linear_109_958)"/>
<mask id="mask0_109_958" style="mask-type:luminance" maskUnits="userSpaceOnUse" x="247" y="2" width="90" height="95">
<path d="M316.052 2.2635C314.762 2.39665 313.823 3.06309 313.237 4.26143C311.594 7.59016 304.555 22.636 292.119 49.1328C280.739 24.9003 273.7 9.98685 270.884 4.26143C270.298 3.06309 269.359 2.39665 268.069 2.2635C262.203 2.13105 256.454 2.13105 250.705 2.2635C248.476 2.39665 247.304 3.72884 247.304 6.25867C247.304 30.2263 247.538 58.8541 248.125 92.0083C248.241 94.405 249.415 95.7358 251.409 95.8696C256.219 96.1359 260.912 96.1359 265.605 95.8696C267.599 95.7358 268.772 94.405 268.889 92.0083C269.007 86.8154 269.124 69.9048 269.359 41.0114C271.119 44.4725 273.934 50.3318 277.806 58.5864C281.677 66.9755 284.61 73.2335 286.84 77.495C287.427 78.8258 288.365 79.4922 289.773 79.4922C292.354 79.4922 293.995 79.4922 294.583 79.3584C295.873 79.3584 296.812 78.6933 297.515 77.495C299.745 73.1011 302.795 66.7099 306.784 58.1883C310.656 49.7992 313.353 44.0738 314.762 41.0114C314.996 69.9048 315.114 86.8154 315.23 92.0083C315.348 94.405 316.521 95.7358 318.516 95.8696C323.209 96.1359 327.901 96.1359 332.711 95.8696C334.706 95.7358 335.879 94.405 335.997 92.0083C336.584 58.7202 336.818 30.0924 336.818 6.25867C336.818 3.72884 335.644 2.39665 333.415 2.2635C330.541 2.19762 327.667 2.16399 324.778 2.16399C321.889 2.16399 318.985 2.19762 316.052 2.2635Z" fill="white"/>
</mask>
<g mask="url(#mask0_109_958)">
<mask id="mask1_109_958" style="mask-type:luminance" maskUnits="userSpaceOnUse" x="-20327" y="-22773" width="40467" height="45927">
<path d="M-20326 -22773H20139.3V23153H-20326V-22773Z" fill="url(#paint3_linear_109_958)"/>
</mask>
<g mask="url(#mask1_109_958)">
<path d="M316.047 2.27033C314.757 2.40349 313.819 3.06992 313.232 4.26826C311.59 7.597 304.55 22.6429 292.114 49.1396C280.734 24.9071 273.695 9.99369 270.88 4.26826C270.293 3.06992 269.355 2.40349 268.064 2.27033C262.198 2.13789 256.45 2.13789 250.7 2.27033C248.471 2.40349 247.299 3.73567 247.299 6.26551C247.299 30.2331 247.533 58.8609 248.12 92.0151C248.237 94.4118 249.411 95.7426 251.404 95.8764C256.214 96.1427 260.908 96.1427 265.6 95.8764C267.594 95.7426 268.767 94.4118 268.885 92.0151C269.003 86.8223 269.119 69.9116 269.355 41.0182C271.114 44.4794 273.929 50.3387 277.801 58.5932C281.672 66.9823 284.605 73.2404 286.835 77.5018C287.422 78.8326 288.36 79.4991 289.768 79.4991C292.349 79.4991 293.991 79.4991 294.578 79.3652C295.868 79.3652 296.807 78.7002 297.511 77.5018C299.74 73.1079 302.791 66.7167 306.779 58.1952C310.651 49.8061 313.349 44.0806 314.757 41.0182C314.991 69.9116 315.109 86.8223 315.226 92.0151C315.344 94.4118 316.516 95.7426 318.511 95.8764C323.204 96.1427 327.897 96.1427 332.707 95.8764C334.702 95.7426 335.874 94.4118 335.992 92.0151C336.579 58.7271 336.813 30.0992 336.813 6.26551C336.813 3.73567 335.64 2.40349 333.411 2.27033C330.536 2.20446 327.662 2.17082 324.773 2.17082C321.884 2.17082 318.98 2.20446 316.047 2.27033Z" fill="url(#paint4_linear_109_958)"/>
</g>
</g>
<path d="M352.654 29.1611C352.654 44.6064 362.977 53.9269 383.274 58.8541C392.19 61.1169 395.944 63.7799 395.944 69.239C395.944 75.8972 391.955 79.2259 383.86 79.2259C376.938 79.2259 369.665 77.3618 361.804 73.6337C360.044 72.8341 358.753 73.2335 357.816 74.6982C356.056 77.2287 354.179 80.9569 351.95 85.8834C351.011 88.147 351.48 89.744 353.357 90.8099C361.1 95.6033 371.072 98 383.156 98C404.626 98 418 87.7475 418 68.574C418 51.397 408.263 42.8755 387.615 38.0821C378.581 35.951 374.709 33.1555 374.709 27.6957C374.709 21.8372 378.464 18.9086 385.972 18.9086C391.955 18.9086 397.939 20.3725 404.157 23.1687C405.8 23.8344 407.09 23.4349 408.028 21.9703C409.553 19.7068 411.547 15.9786 413.895 10.9189C414.715 8.92167 414.129 6.65813 412.369 5.99238C404.978 1.99789 395.592 -4.57764e-05 384.33 -4.57764e-05C365.089 -4.57764e-05 352.654 10.3863 352.654 29.1611Z" fill="url(#paint5_linear_109_958)"/>
<defs>
<linearGradient id="paint0_linear_109_958" x1="7.95094" y1="2.79171" x2="68.6046" y2="53.6888" gradientUnits="userSpaceOnUse">
<stop stop-color="#FBFB65"/>
<stop offset="0.787777" stop-color="#A5E1A6"/>
<stop offset="1" stop-color="#A5E1A6"/>
</linearGradient>
<linearGradient id="paint1_linear_109_958" x1="106.678" y1="7.45326" x2="159.771" y2="68.2788" gradientUnits="userSpaceOnUse">
<stop stop-color="#A5E1A6"/>
<stop offset="0.00591453" stop-color="#A5E1A6"/>
<stop offset="0.480678" stop-color="#A8B5E0"/>
<stop offset="0.735307" stop-color="#B4CBF0"/>
<stop offset="1" stop-color="#B4CBF0"/>
</linearGradient>
<linearGradient id="paint2_linear_109_958" x1="206.066" y1="113.58" x2="149.376" y2="5.60172" gradientUnits="userSpaceOnUse">
<stop stop-color="#BEA9DF"/>
<stop offset="0.0729287" stop-color="#BEA9DF"/>
<stop offset="0.365922" stop-color="#B19CD8"/>
<stop offset="0.629216" stop-color="#C8D9F0"/>
<stop offset="0.880033" stop-color="#C2BEE7"/>
<stop offset="0.915952" stop-color="#C2BEE7"/>
<stop offset="1" stop-color="#C2BEE7"/>
</linearGradient>
<linearGradient id="paint3_linear_109_958" x1="314.468" y1="117.062" x2="257.414" y2="-19.9435" gradientUnits="userSpaceOnUse">
<stop stop-color="white" stop-opacity="0.900008"/>
<stop offset="0.221318" stop-color="white" stop-opacity="0.900008"/>
<stop offset="0.34315" stop-color="white"/>
<stop offset="0.573404" stop-color="white"/>
<stop offset="0.634668" stop-color="white"/>
<stop offset="0.813475" stop-color="white"/>
<stop offset="0.856124" stop-color="white"/>
<stop offset="1" stop-color="white"/>
</linearGradient>
<linearGradient id="paint4_linear_109_958" x1="314.47" y1="117.063" x2="257.416" y2="-19.9431" gradientUnits="userSpaceOnUse">
<stop stop-color="#D9C4EC"/>
<stop offset="0.221318" stop-color="#D9C4EC"/>
<stop offset="0.34315" stop-color="#CCB7E5"/>
<stop offset="0.573404" stop-color="#CCB7E5"/>
<stop offset="0.634668" stop-color="#BEA9DF"/>
<stop offset="0.813475" stop-color="#BEA9DF"/>
<stop offset="0.856124" stop-color="#BEA9DF"/>
<stop offset="1" stop-color="#BEA9DF"/>
</linearGradient>
<linearGradient id="paint5_linear_109_958" x1="399.14" y1="115.073" x2="356.955" y2="-19.0116" gradientUnits="userSpaceOnUse">
<stop stop-color="#FFD1E4"/>
<stop offset="0.150667" stop-color="#FFD1E4"/>
<stop offset="0.488419" stop-color="#FFD1E8"/>
<stop offset="0.519114" stop-color="#FFD1E8"/>
<stop offset="0.614755" stop-color="#E6D1F2"/>
<stop offset="0.937394" stop-color="#E6D1F2"/>
<stop offset="0.995888" stop-color="#E6D1F2"/>
<stop offset="1" stop-color="#E6D1F2"/>
</linearGradient>
</defs>
</svg>
