<svg width="540" height="539" viewBox="0 0 540 539" fill="none" xmlns="http://www.w3.org/2000/svg">
<rect width="540" height="539" fill="#D9D9D9"/>
<path d="M166.051 275.28C166.051 275.92 166.171 276.464 166.411 276.912C166.651 277.344 167.067 277.56 167.659 277.56H167.803C168.043 277.56 168.163 277.68 168.163 277.92V278.64C168.163 278.88 168.043 279 167.803 279H160.435C160.195 279 160.075 278.88 160.075 278.64V277.92C160.075 277.68 160.195 277.56 160.435 277.56H160.603C161.211 277.56 161.627 277.344 161.851 276.912C162.091 276.464 162.211 275.92 162.211 275.28V264.72C162.211 264.064 162.083 263.52 161.827 263.088C161.587 262.656 161.139 262.44 160.483 262.44H160.459C160.219 262.44 160.099 262.32 160.099 262.08V261.36C160.099 261.12 160.219 261 160.459 261H169.267C170.563 261 171.691 261.256 172.651 261.768C173.611 262.264 174.355 262.92 174.883 263.736C175.411 264.536 175.675 265.392 175.675 266.304C175.675 267.328 175.427 268.256 174.931 269.088C174.435 269.904 173.619 270.552 172.483 271.032C171.347 271.512 169.803 271.752 167.851 271.752H166.051V275.28ZM167.443 270.048C169.043 270.048 170.211 269.76 170.947 269.184C171.699 268.592 172.075 267.632 172.075 266.304C172.075 265.2 171.731 264.28 171.043 263.544C170.355 262.808 169.411 262.44 168.211 262.44H165.907V270.048H167.443ZM191.871 273.864C192.015 273.928 192.087 274.024 192.087 274.152C192.087 274.168 192.079 274.192 192.063 274.224C192.063 274.24 192.047 274.288 192.015 274.368L189.759 279.12C189.695 279.264 189.599 279.336 189.471 279.336C189.439 279.336 189.399 279.32 189.351 279.288C189.303 279.272 189.231 279.216 189.135 279.12C189.055 279.04 188.895 279 188.655 279H176.631C176.391 279 176.271 278.88 176.271 278.64V277.92C176.271 277.68 176.391 277.56 176.631 277.56C177.815 277.56 178.407 276.8 178.407 275.28V264.744C178.407 263.224 177.815 262.464 176.631 262.464C176.391 262.464 176.271 262.344 176.271 262.104V261.384C176.271 261.128 176.391 261 176.631 261H183.903C184.207 261 184.359 261.128 184.359 261.384V262.104C184.359 262.344 184.215 262.464 183.927 262.464H182.223V275.016C182.223 276.536 182.775 277.296 183.879 277.296H184.815C185.983 277.296 187.055 277.048 188.031 276.552C189.007 276.04 189.839 275.088 190.527 273.696L190.599 273.552C190.679 273.408 190.775 273.336 190.887 273.336C190.967 273.336 191.039 273.36 191.103 273.408L191.871 273.864ZM208.189 275.28C208.445 275.936 208.693 276.48 208.933 276.912C209.173 277.344 209.517 277.56 209.965 277.56C210.125 277.56 210.221 277.592 210.253 277.656C210.301 277.704 210.325 277.792 210.325 277.92V278.64C210.325 278.88 210.205 279 209.965 279H202.597C202.357 279 202.237 278.88 202.237 278.64V277.92C202.237 277.792 202.253 277.704 202.285 277.656C202.333 277.592 202.437 277.56 202.597 277.56C203.029 277.56 203.445 277.4 203.845 277.08C204.261 276.76 204.469 276.368 204.469 275.904C204.469 275.792 204.453 275.688 204.421 275.592C204.405 275.496 204.381 275.392 204.349 275.28L203.605 273.24H197.029L196.309 275.28C196.277 275.392 196.253 275.504 196.237 275.616C196.221 275.712 196.213 275.8 196.213 275.88C196.213 276.392 196.421 276.8 196.837 277.104C197.253 277.408 197.669 277.56 198.085 277.56C198.261 277.56 198.365 277.592 198.397 277.656C198.429 277.704 198.445 277.792 198.445 277.92V278.64C198.445 278.88 198.325 279 198.085 279H192.109C191.869 279 191.749 278.88 191.749 278.64V277.92C191.749 277.792 191.765 277.704 191.797 277.656C191.845 277.592 191.949 277.56 192.109 277.56C192.589 277.56 192.949 277.336 193.189 276.888C193.445 276.44 193.685 275.904 193.909 275.28L199.069 261.312C199.133 261.104 199.269 261 199.477 261H202.381C202.589 261 202.725 261.096 202.789 261.288L208.189 275.28ZM197.773 271.152H202.837L200.245 264.144L197.773 271.152ZM226.563 273.24C226.659 273.288 226.739 273.336 226.803 273.384C226.867 273.416 226.899 273.472 226.899 273.552C226.899 273.584 226.883 273.648 226.851 273.744C226.595 274.368 226.243 275.008 225.795 275.664C225.363 276.304 224.819 276.904 224.163 277.464C223.523 278.024 222.755 278.472 221.859 278.808C220.979 279.144 219.963 279.312 218.811 279.312C216.891 279.312 215.267 278.912 213.939 278.112C212.611 277.312 211.603 276.224 210.915 274.848C210.227 273.456 209.883 271.904 209.883 270.192C209.883 269.392 209.971 268.56 210.147 267.696C210.323 266.816 210.611 265.96 211.011 265.128C211.411 264.296 211.947 263.552 212.619 262.896C213.307 262.224 214.155 261.696 215.163 261.312C216.171 260.912 217.363 260.712 218.739 260.712C219.891 260.712 220.883 260.856 221.715 261.144C222.547 261.432 223.243 261.8 223.803 262.248C224.363 262.68 224.811 263.136 225.147 263.616C225.483 264.096 225.723 264.544 225.867 264.96C226.011 265.376 226.083 265.688 226.083 265.896C226.083 266.12 225.947 266.28 225.675 266.376L222.747 267.408C222.587 267.472 222.443 267.504 222.315 267.504C222.123 267.504 222.027 267.424 222.027 267.264C222.027 267.232 222.035 267.112 222.051 266.904C222.067 266.696 222.075 266.552 222.075 266.472C222.075 265.896 221.971 265.312 221.763 264.72C221.555 264.128 221.195 263.632 220.683 263.232C220.171 262.816 219.459 262.608 218.547 262.608C217.683 262.608 216.955 262.816 216.363 263.232C215.787 263.648 215.323 264.192 214.971 264.864C214.619 265.536 214.363 266.248 214.203 267C214.059 267.752 213.987 268.464 213.987 269.136C213.987 270.688 214.171 272.056 214.539 273.24C214.907 274.408 215.475 275.328 216.243 276C217.027 276.656 218.011 276.984 219.195 276.984C220.379 276.984 221.347 276.776 222.099 276.36C222.867 275.944 223.475 275.44 223.923 274.848C224.387 274.24 224.747 273.648 225.003 273.072C225.099 272.864 225.235 272.76 225.411 272.76C225.491 272.76 225.595 272.792 225.723 272.856L226.563 273.24ZM244.444 273.864C244.588 273.944 244.66 274.032 244.66 274.128C244.66 274.192 244.636 274.272 244.588 274.368L242.332 279.12C242.268 279.264 242.172 279.336 242.044 279.336C241.964 279.336 241.892 279.304 241.828 279.24L241.708 279.12C241.628 279.04 241.468 279 241.228 279H228.1C227.86 279 227.74 278.88 227.74 278.64V277.92C227.74 277.68 227.86 277.56 228.1 277.56H228.148C229.3 277.56 229.876 276.8 229.876 275.28V264.744C229.876 263.224 229.292 262.464 228.124 262.464H228.1C227.86 262.464 227.74 262.344 227.74 262.104V261.384C227.74 261.128 227.86 261 228.1 261H240.124C240.332 261 240.484 260.96 240.58 260.88L240.724 260.76C240.772 260.712 240.836 260.688 240.916 260.688C241.044 260.688 241.148 260.752 241.228 260.88L243.124 264.144C243.172 264.208 243.196 264.28 243.196 264.36C243.196 264.472 243.132 264.568 243.004 264.648L242.044 265.176C241.932 265.24 241.844 265.272 241.78 265.272C241.668 265.272 241.572 265.2 241.492 265.056L241.42 264.936C240.924 264.104 240.388 263.528 239.812 263.208C239.252 262.872 238.508 262.704 237.58 262.704H233.692V268.344H235.804C236.524 268.344 237.084 268.208 237.484 267.936C237.884 267.664 238.084 267.264 238.084 266.736V266.568C238.084 266.328 238.204 266.208 238.444 266.208H239.164C239.404 266.208 239.524 266.328 239.524 266.568V272.016C239.524 272.256 239.404 272.376 239.164 272.376H238.444C238.204 272.376 238.084 272.256 238.084 272.016V271.872C238.084 271.328 237.884 270.928 237.484 270.672C237.1 270.4 236.54 270.264 235.804 270.264H233.692V275.016C233.692 276.536 234.244 277.296 235.348 277.296H236.908C238.092 277.296 239.052 277.184 239.788 276.96C240.54 276.736 241.164 276.36 241.66 275.832C242.172 275.304 242.652 274.592 243.1 273.696L243.172 273.552C243.252 273.424 243.356 273.36 243.484 273.36C243.564 273.36 243.628 273.376 243.676 273.408L244.444 273.864ZM263.13 275.28C263.13 275.92 263.242 276.464 263.466 276.912C263.706 277.344 264.13 277.56 264.738 277.56H264.882C265.122 277.56 265.242 277.68 265.242 277.92V278.64C265.242 278.88 265.122 279 264.882 279H257.514C257.274 279 257.154 278.88 257.154 278.64V277.92C257.154 277.68 257.274 277.56 257.514 277.56H257.658C258.266 277.56 258.69 277.344 258.93 276.912C259.17 276.464 259.29 275.92 259.29 275.28V270.72H251.082V275.28C251.082 275.92 251.202 276.464 251.442 276.912C251.682 277.344 252.106 277.56 252.714 277.56H252.858C253.098 277.56 253.218 277.68 253.218 277.92V278.64C253.218 278.88 253.098 279 252.858 279H245.49C245.25 279 245.13 278.88 245.13 278.64V277.92C245.13 277.68 245.25 277.56 245.49 277.56H245.634C246.242 277.56 246.658 277.344 246.882 276.912C247.122 276.464 247.242 275.92 247.242 275.28V264.72C247.242 264.08 247.122 263.544 246.882 263.112C246.658 262.664 246.242 262.44 245.634 262.44H245.49C245.25 262.44 245.13 262.32 245.13 262.08V261.36C245.13 261.12 245.25 261 245.49 261H252.858C253.098 261 253.218 261.12 253.218 261.36V262.08C253.218 262.32 253.098 262.44 252.858 262.44H252.714C252.106 262.44 251.682 262.664 251.442 263.112C251.202 263.544 251.082 264.08 251.082 264.72V268.824H259.29V264.72C259.29 264.08 259.17 263.544 258.93 263.112C258.69 262.664 258.266 262.44 257.658 262.44H257.514C257.274 262.44 257.154 262.32 257.154 262.08V261.36C257.154 261.12 257.274 261 257.514 261H264.882C265.122 261 265.242 261.12 265.242 261.36V262.08C265.242 262.32 265.122 262.44 264.882 262.44H264.738C264.13 262.44 263.706 262.664 263.466 263.112C263.242 263.544 263.13 264.08 263.13 264.72V275.28ZM274.849 260.712C276.113 260.712 277.297 260.96 278.401 261.456C279.521 261.952 280.497 262.64 281.329 263.52C282.177 264.384 282.833 265.384 283.297 266.52C283.777 267.656 284.017 268.864 284.017 270.144C284.017 271.424 283.785 272.624 283.321 273.744C282.857 274.848 282.209 275.816 281.377 276.648C280.561 277.48 279.617 278.136 278.545 278.616C277.473 279.08 276.329 279.312 275.113 279.312C273.849 279.312 272.657 279.064 271.537 278.568C270.433 278.072 269.465 277.392 268.633 276.528C267.801 275.648 267.145 274.64 266.665 273.504C266.201 272.368 265.969 271.168 265.969 269.904C265.969 268.656 266.193 267.48 266.641 266.376C267.089 265.272 267.713 264.296 268.513 263.448C269.329 262.584 270.273 261.912 271.345 261.432C272.417 260.952 273.585 260.712 274.849 260.712ZM274.585 262.824C272.985 262.824 271.745 263.36 270.865 264.432C269.985 265.488 269.545 266.888 269.545 268.632C269.545 269.32 269.617 270.056 269.761 270.84C269.905 271.624 270.121 272.392 270.409 273.144C270.713 273.88 271.097 274.552 271.561 275.16C272.025 275.768 272.569 276.256 273.193 276.624C273.817 276.992 274.537 277.176 275.353 277.176C276.441 277.176 277.361 276.936 278.113 276.456C278.881 275.96 279.457 275.28 279.841 274.416C280.241 273.536 280.441 272.528 280.441 271.392C280.441 270.768 280.369 270.072 280.225 269.304C280.097 268.536 279.881 267.776 279.577 267.024C279.289 266.256 278.913 265.56 278.449 264.936C278.001 264.296 277.457 263.784 276.817 263.4C276.177 263.016 275.433 262.824 274.585 262.824ZM300.34 273.864C300.484 273.928 300.556 274.024 300.556 274.152C300.556 274.168 300.548 274.192 300.532 274.224C300.532 274.24 300.516 274.288 300.484 274.368L298.228 279.12C298.164 279.264 298.068 279.336 297.94 279.336C297.908 279.336 297.868 279.32 297.82 279.288C297.772 279.272 297.7 279.216 297.604 279.12C297.524 279.04 297.364 279 297.124 279H285.1C284.86 279 284.74 278.88 284.74 278.64V277.92C284.74 277.68 284.86 277.56 285.1 277.56C286.284 277.56 286.876 276.8 286.876 275.28V264.744C286.876 263.224 286.284 262.464 285.1 262.464C284.86 262.464 284.74 262.344 284.74 262.104V261.384C284.74 261.128 284.86 261 285.1 261H292.372C292.676 261 292.828 261.128 292.828 261.384V262.104C292.828 262.344 292.684 262.464 292.396 262.464H290.692V275.016C290.692 276.536 291.244 277.296 292.348 277.296H293.284C294.452 277.296 295.524 277.048 296.5 276.552C297.476 276.04 298.308 275.088 298.996 273.696L299.068 273.552C299.148 273.408 299.244 273.336 299.356 273.336C299.436 273.336 299.508 273.36 299.572 273.408L300.34 273.864ZM308.546 261C310.466 261 312.146 261.36 313.586 262.08C315.042 262.8 316.17 263.832 316.97 265.176C317.786 266.52 318.194 268.12 318.194 269.976C318.194 271.88 317.826 273.512 317.09 274.872C316.354 276.216 315.314 277.24 313.97 277.944C312.626 278.648 311.042 279 309.218 279H301.154C300.914 279 300.794 278.88 300.794 278.64V277.92C300.794 277.68 300.914 277.56 301.154 277.56H301.322C301.85 277.56 302.25 277.36 302.522 276.96C302.794 276.56 302.93 276 302.93 275.28V264.72C302.93 263.2 302.346 262.44 301.178 262.44H301.154C300.914 262.44 300.794 262.32 300.794 262.08V261.36C300.794 261.12 300.914 261 301.154 261H308.546ZM306.746 275.4C306.746 276.024 306.85 276.52 307.058 276.888C307.266 277.256 307.754 277.44 308.522 277.44C310.426 277.44 311.906 276.848 312.962 275.664C314.018 274.48 314.546 272.584 314.546 269.976C314.546 267.656 314.002 265.824 312.914 264.48C311.826 263.12 310.146 262.44 307.874 262.44H306.746V275.4ZM335.615 273.864C335.759 273.944 335.831 274.032 335.831 274.128C335.831 274.192 335.807 274.272 335.759 274.368L333.503 279.12C333.439 279.264 333.343 279.336 333.215 279.336C333.135 279.336 333.063 279.304 332.999 279.24L332.879 279.12C332.799 279.04 332.639 279 332.399 279H319.271C319.031 279 318.911 278.88 318.911 278.64V277.92C318.911 277.68 319.031 277.56 319.271 277.56H319.319C320.471 277.56 321.047 276.8 321.047 275.28V264.744C321.047 263.224 320.463 262.464 319.295 262.464H319.271C319.031 262.464 318.911 262.344 318.911 262.104V261.384C318.911 261.128 319.031 261 319.271 261H331.295C331.503 261 331.655 260.96 331.751 260.88L331.895 260.76C331.943 260.712 332.007 260.688 332.087 260.688C332.215 260.688 332.319 260.752 332.399 260.88L334.295 264.144C334.343 264.208 334.367 264.28 334.367 264.36C334.367 264.472 334.303 264.568 334.175 264.648L333.215 265.176C333.103 265.24 333.015 265.272 332.951 265.272C332.839 265.272 332.743 265.2 332.663 265.056L332.591 264.936C332.095 264.104 331.559 263.528 330.983 263.208C330.423 262.872 329.679 262.704 328.751 262.704H324.863V268.344H326.975C327.695 268.344 328.255 268.208 328.655 267.936C329.055 267.664 329.255 267.264 329.255 266.736V266.568C329.255 266.328 329.375 266.208 329.615 266.208H330.335C330.575 266.208 330.695 266.328 330.695 266.568V272.016C330.695 272.256 330.575 272.376 330.335 272.376H329.615C329.375 272.376 329.255 272.256 329.255 272.016V271.872C329.255 271.328 329.055 270.928 328.655 270.672C328.271 270.4 327.711 270.264 326.975 270.264H324.863V275.016C324.863 276.536 325.415 277.296 326.519 277.296H328.079C329.263 277.296 330.223 277.184 330.959 276.96C331.711 276.736 332.335 276.36 332.831 275.832C333.343 275.304 333.823 274.592 334.271 273.696L334.343 273.552C334.423 273.424 334.527 273.36 334.655 273.36C334.735 273.36 334.799 273.376 334.847 273.408L335.615 273.864ZM354.182 277.56C354.422 277.56 354.542 277.68 354.542 277.92V278.64C354.542 278.88 354.422 279 354.182 279H346.814C346.574 279 346.454 278.88 346.454 278.64V277.92C346.454 277.68 346.574 277.56 346.814 277.56H346.958C347.358 277.56 347.654 277.448 347.846 277.224C348.038 276.984 348.134 276.704 348.134 276.384C348.134 276.016 348.03 275.648 347.822 275.28L345.638 271.2C345.158 271.248 344.638 271.272 344.078 271.272H342.278V275.28C342.278 275.92 342.398 276.464 342.638 276.912C342.878 277.344 343.294 277.56 343.886 277.56H344.03C344.27 277.56 344.39 277.68 344.39 277.92V278.64C344.39 278.88 344.27 279 344.03 279H336.662C336.422 279 336.302 278.88 336.302 278.64V277.92C336.302 277.68 336.422 277.56 336.662 277.56H336.83C337.438 277.56 337.854 277.344 338.078 276.912C338.318 276.464 338.438 275.92 338.438 275.28V264.72C338.438 264.064 338.31 263.52 338.054 263.088C337.814 262.656 337.358 262.44 336.686 262.44C336.446 262.44 336.326 262.32 336.326 262.08V261.36C336.326 261.12 336.446 261 336.686 261H345.494C346.79 261 347.918 261.232 348.878 261.696C349.838 262.16 350.582 262.776 351.11 263.544C351.638 264.312 351.902 265.152 351.902 266.064C351.902 266.88 351.686 267.672 351.254 268.44C350.822 269.208 350.086 269.84 349.046 270.336L351.662 275.28C351.982 275.872 352.31 276.4 352.646 276.864C352.998 277.328 353.47 277.56 354.062 277.56H354.182ZM343.67 269.568C345.27 269.568 346.438 269.256 347.174 268.632C347.926 268.008 348.302 267.152 348.302 266.064C348.302 264.96 347.958 264.08 347.27 263.424C346.582 262.768 345.638 262.44 344.438 262.44H342.278V269.568H343.67ZM376.138 261C376.218 261 376.306 260.992 376.402 260.976C376.514 260.944 376.626 260.872 376.738 260.76C376.802 260.696 376.874 260.664 376.954 260.664C377.082 260.664 377.178 260.736 377.242 260.88L379.138 264.384C379.186 264.48 379.21 264.552 379.21 264.6C379.21 264.728 379.146 264.824 379.018 264.888L378.01 265.44C377.914 265.488 377.834 265.512 377.77 265.512C377.674 265.512 377.586 265.44 377.506 265.296L377.434 265.152C377.034 264.352 376.458 263.784 375.706 263.448C374.954 263.112 374.09 262.944 373.114 262.944H371.938V275.28C371.938 275.92 372.058 276.464 372.298 276.912C372.538 277.344 372.962 277.56 373.57 277.56H373.738C373.978 277.56 374.098 277.68 374.098 277.92V278.64C374.098 278.88 373.978 279 373.738 279H366.346C366.106 279 365.986 278.88 365.986 278.64V277.92C365.986 277.68 366.106 277.56 366.346 277.56H366.49C367.098 277.56 367.522 277.344 367.762 276.912C368.002 276.464 368.122 275.92 368.122 275.28V262.944H366.946C365.97 262.944 365.106 263.112 364.354 263.448C363.602 263.784 363.026 264.352 362.626 265.152L362.554 265.296C362.474 265.44 362.386 265.512 362.29 265.512C362.226 265.512 362.146 265.488 362.05 265.44L361.042 264.888C360.914 264.824 360.85 264.728 360.85 264.6C360.85 264.552 360.874 264.48 360.922 264.384L362.818 260.88C362.898 260.736 362.994 260.664 363.106 260.664C363.186 260.664 363.258 260.696 363.322 260.76C363.434 260.872 363.538 260.944 363.634 260.976C363.746 260.992 363.842 261 363.922 261H376.138Z" fill="black"/>
</svg>
