<svg width="421" height="289" viewBox="0 0 421 289" fill="none" xmlns="http://www.w3.org/2000/svg">
<line y1="-2.5" x2="175" y2="-2.5" transform="matrix(-0.373582 0.927597 -0.927967 -0.372661 68.4946 29.1462)" stroke="#F3E8D8" stroke-opacity="0.8" stroke-width="5"/>
<line y1="-2.5" x2="95" y2="-2.5" transform="matrix(-0.373582 0.927597 -0.927967 -0.372661 37.8495 12.0001)" stroke="#F3E8D8" stroke-opacity="0.8" stroke-width="5"/>
<line y1="-2.5" x2="253.483" y2="-2.5" transform="matrix(-0.37843 0.92563 -0.926009 -0.377501 98.9256 42.0852)" stroke="#F3E8D8" stroke-opacity="0.8" stroke-width="5"/>
<line y1="-2.5" x2="250" y2="-2.5" transform="matrix(-0.37843 0.92563 -0.926009 -0.377501 129.822 53.3221)" stroke="#F3E8D8" stroke-opacity="0.8" stroke-width="5"/>
<line y1="-2.5" x2="235" y2="-2.5" transform="matrix(-0.37843 0.92563 -0.926009 -0.377501 163.891 67.0736)" stroke="#F3E8D8" stroke-opacity="0.8" stroke-width="5"/>
<line y1="-2.5" x2="220" y2="-2.5" transform="matrix(-0.37843 0.92563 -0.926009 -0.377501 197.967 79.1217)" stroke="#F3E8D8" stroke-opacity="0.8" stroke-width="5"/>
<line y1="-2.5" x2="200" y2="-2.5" transform="matrix(-0.37843 0.92563 -0.926009 -0.377501 233.73 96.2865)" stroke="#F3E8D8" stroke-opacity="0.8" stroke-width="5"/>
<line y1="-2.5" x2="180" y2="-2.5" transform="matrix(-0.37843 0.92563 -0.926009 -0.377501 257.926 115)" stroke="#F3E8D8" stroke-opacity="0.8" stroke-width="5"/>
<line y1="-2.5" x2="160" y2="-2.5" transform="matrix(-0.37843 0.92563 -0.926009 -0.377501 298.926 135)" stroke="#F3E8D8" stroke-opacity="0.8" stroke-width="5"/>
<line y1="-2.5" x2="130" y2="-2.5" transform="matrix(-0.37843 0.92563 -0.926009 -0.377501 329.196 162)" stroke="#F3E8D8" stroke-opacity="0.8" stroke-width="5"/>
<line y1="-2.5" x2="70" y2="-2.5" transform="matrix(-0.37843 0.92563 -0.926009 -0.377501 385.49 222)" stroke="#F3E8D8" stroke-opacity="0.8" stroke-width="5"/>
<line x1="368.022" y1="192.959" x2="331.309" y2="281.397" stroke="#F3E8D8" stroke-opacity="0.8" stroke-width="5"/>
<path d="M4.00605 283.501C4.00606 267.5 4.00606 6.00021 4.00606 6.00021C4.00606 6.00021 382.006 110.5 415.506 283.502C372.006 283.502 382.006 284.28 167.006 283.501C9.20605 282.929 4.00605 283.501 4.00605 283.501Z" stroke="#E3D5C9" stroke-width="8"/>
</svg>
